<svg aria-hidden="true" style="position: absolute; width: 0; height: 0; overflow: hidden;" version="1.1" xmlns="http://www.w3.org/2000/svg" xmlns:xlink="http://www.w3.org/1999/xlink">
<defs>
<symbol id="icon-hamburger" viewBox="0 0 47 32">
<path stroke-linejoin="round" stroke-linecap="round" stroke-miterlimit="4" stroke-width="4.3636" d="M1.96 29.154h42.965M1.96 15.615h42.965M1.96 2.077h42.965"></path>
</symbol>
<symbol id="icon-phone" viewBox="0 0 24 32">
<path d="M19.635 18.487l-2.451-0.28c-0.589-0.067-1.167 0.135-1.582 0.55l-1.775 1.775c-2.731-1.389-4.969-3.618-6.359-6.359l1.785-1.785c0.415-0.415 0.618-0.994 0.55-1.582l-0.28-2.432c-0.116-0.975-0.936-1.708-1.92-1.708h-1.669c-1.090 0-1.997 0.907-1.93 1.997 0.511 8.24 7.102 14.821 15.332 15.332 1.090 0.068 1.997-0.839 1.997-1.93v-1.669c0.010-0.975-0.724-1.795-1.698-1.911z"></path>
</symbol>
</defs>
</svg>
